<?xml version="1.0" encoding="UTF-8" standalone="no"?>
<svg
   version="1.0"
   width="256pt"
   height="256pt"
   viewBox="0 0 256 256"
   preserveAspectRatio="xMidYMid"
   id="svg28"
   xml:space="preserve"
   xmlns="http://www.w3.org/2000/svg"
   xmlns:svg="http://www.w3.org/2000/svg"><defs
     id="defs32" /><g
     transform="matrix(0.1,0,0,-0.1,0,256)"
     fill="#000000"
     stroke="none"
     id="g26"><path
       d="m 2380,1914 c -84,-47 -139,-84 -224,-152 l -70,-56 -41,48 c -38,42 -46,47 -78,44 l -36,-3 57,-67 c 55,-66 57,-68 103,-68 44,0 50,3 94,53 58,66 177,171 234,208 63,41 39,36 -39,-7 z"
       id="path2"
       style="fill:#f2383e;fill-opacity:0.858824" /><path
       d="m 1460,1795 c -7,-9 -10,-19 -6,-23 4,-4 12,1 17,11 12,21 32,22 50,1 11,-14 7,-22 -34,-60 -26,-24 -47,-46 -47,-49 0,-3 26,-4 58,-3 56,1 56,1 13,7 l -43,6 41,37 c 45,40 48,49 25,72 -20,20 -58,21 -74,1 z"
       id="path4"
       style="fill:#0041a7;fill-opacity:0.980392" /><path
       d="m 1651,1784 c -24,-30 -26,-46 -10,-77 16,-30 28,-37 66,-37 33,0 67,25 57,42 -3,5 -12,0 -21,-11 -20,-29 -59,-27 -79,4 -35,54 18,116 70,81 34,-22 43,-20 21,4 -27,30 -78,27 -104,-6 z"
       id="path6"
       style="fill:#0041a7;fill-opacity:0.980392" /><path
       d="m 1800,1740 v -70 h 44 c 61,0 94,33 62,62 -10,9 -10,17 -3,30 17,27 -8,48 -59,48 h -44 z m 79,51 c 23,-15 5,-41 -29,-41 -25,0 -30,4 -30,25 0,19 5,25 23,25 12,0 28,-4 36,-9 z m 6,-65 c 16,-12 17,-16 6,-30 -7,-9 -26,-16 -42,-16 -26,0 -29,4 -29,30 0,25 4,30 23,30 13,0 32,-6 42,-14 z"
       id="path8"
       style="fill:#0041a7;fill-opacity:0.980392" /><path
       d="m 1070,1607 c -99,-23 -140,-61 -140,-132 0,-77 28,-95 241,-159 146,-44 203,-99 197,-194 -2,-28 0,-52 3,-52 13,0 39,68 39,101 0,18 -11,51 -25,75 -29,50 -77,75 -231,122 -120,37 -168,66 -172,105 -2,16 3,35 10,44 23,29 91,53 149,53 108,0 184,-37 216,-108 10,-24 12,-17 10,53 l -2,79 -35,7 c -74,16 -205,18 -260,6 z"
       id="path10"
       style="fill:#0041a7;fill-opacity:0.980392" /><path
       d="m 131,1587 c 56,-38 59,-51 59,-282 0,-243 -6,-278 -56,-307 -19,-11 -34,-21 -32,-22 2,-1 36,0 76,2 l 72,4 v 308 c 0,350 9,320 -92,320 H 97 Z"
       id="path12"
       style="fill:#0042a7;fill-opacity:0.980392" /><path
       d="m 318,1603 c -17,-4 -18,-28 -18,-314 V 980 h 204 c 112,0 211,-3 219,-6 10,-4 22,13 41,61 35,87 33,96 -12,52 -54,-52 -109,-67 -254,-67 H 380 l -12,28 c -7,17 -12,106 -12,242 -1,244 4,269 63,300 l 36,19 -60,-1 c -33,0 -68,-2 -77,-5 z"
       id="path14"
       style="fill:#0041a7;fill-opacity:0.980392" /><path
       d="m 1515,1596 c 68,-30 70,-35 73,-280 4,-255 -2,-287 -54,-318 -19,-11 -34,-21 -32,-22 2,-1 36,0 76,2 l 72,4 v 308 308 l -31,6 c -17,3 -55,6 -83,6 -51,-1 -51,-1 -21,-14 z"
       id="path16"
       style="fill:#0041a7;fill-opacity:0.980392" /><path
       d="m 1723,1603 -23,-4 V 1289 980 h 64 c 35,0 73,-3 83,-6 10,-3 1,4 -19,16 -54,29 -70,67 -72,169 l -1,86 30,-5 c 17,-3 60,-5 96,-4 132,2 215,73 213,183 -1,91 -46,152 -128,176 -46,14 -189,18 -243,8 z m 237,-51 c 49,-26 84,-97 75,-151 -13,-80 -73,-124 -170,-125 -33,0 -72,3 -87,7 -28,7 -28,9 -27,85 1,105 13,182 30,193 26,16 142,10 179,-9 z"
       id="path18"
       style="fill:#0041a7;fill-opacity:0.980392" /><path
       d="m 2104,1550 c 60,-71 59,-196 -1,-262 -21,-24 -6,-23 35,2 66,40 92,132 57,200 -15,29 -65,72 -98,84 -15,5 -14,0 7,-24 z"
       id="path20"
       style="fill:#0041a7;fill-opacity:0.980392" /><path
       d="m 862,1467 c -24,-58 -6,-118 45,-155 16,-11 82,-37 148,-57 144,-45 190,-69 205,-106 40,-95 -88,-167 -224,-127 -49,15 -136,95 -136,126 0,11 -4,24 -10,27 -11,7 -14,-87 -4,-146 l 6,-35 82,-12 c 114,-17 198,-15 247,4 53,22 99,83 99,133 0,82 -57,124 -240,175 -145,41 -187,75 -200,160 l -7,41 z"
       id="path22"
       style="fill:#0041a7;fill-opacity:0.980392" /><path
       d="m 90,940 c 0,-7 342,-10 1005,-10 663,0 1005,3 1005,10 0,7 -342,10 -1005,10 C 432,950 90,947 90,940 Z"
       id="path24"
       style="fill:#f2383e;fill-opacity:0.858824" /></g></svg>
